PathFileType	4	(x/y/z)	TRC_MarkerData\Passive\Passive_Pref0009.trc
DataRate	CameraRate	NumFrames	NumMarkers	Units	OrigDataRate	OrigDataStartFrame	OrigNumFrames
240	240	5	50	mm	240	164	262
Frame#	Time	R_AC			L_AC			HEAD			STERN			L_IC			R_IC			L_ASIS			R_ASIS			L_GT			R_GT			L_PSIS			R_PSIS			SACRAL			L_LAT_KNEE			L_MED_KNEE			R_LAT_KNEE			R_MED_KNEE			L_LAT_ANK			L_MED_ANK			R_LAT_ANK			R_MED_ANK			L_THIGH_PROX_POST			L_THIGH_PROX_ANT			L_THIGH_DIST_ANT			L_THIGH_DIST_POST			R_THIGH_PROX_POST			R_THIGH_PROX_ANT			R_THIGH_DIST_ANT			R_THIGH_DIST_POST			L_SHANK_PROX_POST			L_SHANK_PROX_ANT			L_SHANK_DIST_ANT			L_SHANK_DIST_POST			R_SHANK_PROX_POST			R_SHANK_PROX_ANT			R_SHANK_DIST_ANT			R_SHANK_DIST_POST			L_HEEL_LAT			L_HEEL_SUP			L_HEEL_MED			R_HEEL_LAT			R_HEEL_SUP			R_HEEL_MED			L_1ST_MET			L_5TH_MET			L_TOE			R_1ST_MET			R_5TH_MET			R_TOE			C7			
		X1	Y1	Z1	X2	Y2	Z2	X3	Y3	Z3	X4	Y4	Z4	X5	Y5	Z5	X6	Y6	Z6	X7	Y7	Z7	X8	Y8	Z8	X9	Y9	Z9	X10	Y10	Z10	X11	Y11	Z11	X12	Y12	Z12	X13	Y13	Z13	X14	Y14	Z14	X15	Y15	Z15	X16	Y16	Z16	X17	Y17	Z17	X18	Y18	Z18	X19	Y19	Z19	X20	Y20	Z20	X21	Y21	Z21	X22	Y22	Z22	X23	Y23	Z23	X24	Y24	Z24	X25	Y25	Z25	X26	Y26	Z26	X27	Y27	Z27	X28	Y28	Z28	X29	Y29	Z29	X30	Y30	Z30	X31	Y31	Z31	X32	Y32	Z32	X33	Y33	Z33	X34	Y34	Z34	X35	Y35	Z35	X36	Y36	Z36	X37	Y37	Z37	X38	Y38	Z38	X39	Y39	Z39	X40	Y40	Z40	X41	Y41	Z41	X42	Y42	Z42	X43	Y43	Z43	X44	Y44	Z44	X45	Y45	Z45	X46	Y46	Z46	X47	Y47	Z47	X48	Y48	Z48	X49	Y49	Z49	X50	Y50	Z50	

164	0.68177	105.12	1459.7	406.13	152.13	1488.5	59.598	127.6	1760.2	241.19	169.18	1417.6	233.49	82.234	1036.6	64.622	104.78	1077.9	390.11	138.77	955.44	92.46	185.67	992.66	363.23	41.036	867.16	49.563	131.58	924.97	426.39	-29.037	1026.9	189.28	-21.083	1042.4	281.71	-39.382	1003.1	240.93	13.962	466.71	90.531	29.374	455.67	222.75	251.35	524.89	338.3	225.86	545.61	210.95	-333.46	237.59	156.57	-314.71	219.84	221.41	201.47	100.86	294.43	209.9	127.14	205.92	19.228	704.09	82.28	82.257	697.67	84.984	83.186	623.92	95.36	17.286	628.07	91.203	157.43	703.1	390.34	219.3	731.8	389.57	242.29	662.95	369.7	180.62	635.13	367.84	-63.511	429.01	105.34	-25.45	396.56	114.33	-76.761	369.57	127.4	-117.25	409.13	138.91	182.5	362.86	336.72	251.45	362.41	333.65	244.13	287.39	319.54	173.76	290.79	321.58	-430.7	253.9	196.72	-402.56	267.11	227.52	-414.14	235.99	257.33	135.16	36.322	261.56	131.19	67.461	230.3	147.92	44.758	195.63	-295.17	84.716	192.69	-351.08	123.92	109.13	-266.22	53.737	139.73	352.79	64.933	205.65	321.83	46.523	309.72	404.7	68.661	257.64	49.848	1536.9	231.62
165	0.68595	111.33	1460.4	405.92	157.61	1489.1	59.232	133.71	1760.8	241.58	175.07	1418.3	233.19	87.849	1037.1	64.866	110.72	1078.7	390.31	144.57	956.09	92.718	191.59	993.34	363.35	47.424	867.51	49.931	137.61	925.62	426.61	-23.238	1027.5	189.67	-15.153	1043.1	282.11	-33.573	1003.7	241.43	24.134	468.51	89.549	42.666	453.51	220.98	254.59	524.61	338.42	229.17	545.54	211.14	-324.57	241.63	157.07	-304.41	221.8	220.76	201.78	100.97	294.47	210.33	127.25	206.01	27.655	704.08	82.173	90.763	698.41	84.518	92.631	624.66	94.609	26.673	627.96	90.892	161.82	703.42	390.54	223.95	731.78	389.76	246.5	662.78	369.91	184.67	635.31	368.02	-53.413	431.26	105.07	-15.573	398.15	112.15	-66.916	371.39	125.68	-106.58	411.06	139.33	184.75	363.06	336.87	253.68	362.13	333.75	245.86	287.17	319.61	175.53	291.03	321.63	-420.64	257.94	200.08	-391.57	269.91	230.49	-402.86	238.09	259.64	135.27	36.518	261.62	131.33	67.652	230.36	147.99	44.926	195.69	-287.34	87.118	187.53	-344.85	129.62	106.68	-260.25	57.19	132.97	352.99	64.577	205.6	321.97	46.461	309.78	404.94	68.065	257.53	55.657	1537.4	231.84
166	0.69013	117.55	1461.2	405.7	163.04	1489.8	58.833	139.81	1761.5	241.94	180.92	1419	232.85	93.386	1037.6	65.114	116.69	1079.5	390.52	150.32	956.8	92.93	197.49	994.02	363.45	53.717	867.96	50.296	143.59	926.27	426.83	-17.508	1028.2	190.1	-9.249	1043.8	282.56	-27.786	1004.4	241.96	34.371	470.52	88.583	55.946	451.54	219.15	257.67	524.34	338.55	232.24	545.47	211.36	-315.37	245.55	157.51	-293.81	223.64	219.99	202.08	101.09	294.51	210.74	127.37	206.11	36.038	704.17	82.079	99.226	699.27	84.024	102.04	625.54	93.824	36.04	627.98	90.595	166.08	703.76	390.72	228.48	731.76	389.94	250.59	662.62	370.12	188.58	635.51	368.2	-43.195	433.62	104.79	-5.5772	399.93	109.96	-56.927	373.34	123.94	-95.784	413.03	139.72	186.91	363.25	337.05	255.81	361.85	333.86	247.51	286.96	319.68	177.24	291.27	321.71	-410.28	261.7	203.34	-380.3	272.44	233.34	-391.3	239.9	261.79	135.38	36.72	261.68	131.47	67.847	230.43	148.06	45.096	195.75	-279.14	89.556	182.29	-338.2	135.26	104.19	-253.86	60.797	126.18	353.18	64.246	205.56	322.1	46.402	309.83	405.16	67.498	257.43	61.453	1538	232.03
167	0.69432	123.79	1462	405.47	168.43	1490.5	58.403	145.91	1762.2	242.27	186.75	1419.8	232.48	98.853	1038.2	65.366	122.7	1080.4	390.72	156.02	957.57	93.096	203.37	994.7	363.51	59.916	868.5	50.655	149.5	926.92	427.03	-11.845	1028.8	190.57	-3.3727	1044.6	283.05	-22.017	1005.2	242.53	44.686	472.69	87.632	69.188	449.79	217.28	260.62	524.1	338.68	235.11	545.4	211.59	-305.89	249.31	157.87	-282.95	225.36	219.1	202.38	101.22	294.55	211.15	127.5	206.2	44.373	704.37	81.998	107.64	700.26	83.503	111.43	626.56	93.009	45.385	628.14	90.313	170.22	704.13	390.89	232.91	731.76	390.1	254.55	662.47	370.32	192.37	635.74	368.38	-32.851	436.06	104.5	4.5457	401.86	107.79	-46.79	375.4	122.19	-84.848	415.03	140.05	188.98	363.43	337.24	257.85	361.6	333.97	249.11	286.78	319.74	178.88	291.5	321.8	-399.64	265.16	206.43	-368.8	274.71	236.01	-379.49	241.46	263.74	135.49	36.928	261.74	131.61	68.049	230.49	148.14	45.269	195.81	-270.58	92.009	177.03	-331.12	140.77	101.7	-247.04	64.502	119.45	353.38	63.936	205.52	322.23	46.342	309.89	405.38	66.957	257.34	67.237	1538.7	232.17
168	0.6985	130.04	1462.9	405.22	173.79	1491.2	57.947	152.01	1763	242.57	192.55	1420.6	232.08	104.25	1038.8	65.621	128.72	1081.3	390.91	161.67	958.4	93.215	209.22	995.39	363.55	66.024	869.14	51.004	155.34	927.59	427.22	-6.2468	1029.6	191.08	2.4753	1045.4	283.58	-16.266	1005.9	243.12	55.092	475	86.695	82.366	448.28	215.38	263.43	523.87	338.81	237.8	545.34	211.85	-296.11	252.89	158.12	-271.85	226.96	218.09	202.67	101.35	294.6	211.56	127.65	206.29	52.659	704.68	81.93	116.01	701.37	82.958	120.77	627.72	92.164	54.706	628.43	90.041	174.26	704.53	391.05	237.22	731.78	390.26	258.41	662.33	370.51	196.05	636	368.58	-22.374	438.57	104.18	14.805	403.91	105.65	-36.499	377.53	120.46	-73.783	417.05	140.32	190.96	363.6	337.45	259.81	361.37	334.09	250.64	286.61	319.81	180.46	291.73	321.9	-388.73	268.33	209.31	-357.09	276.74	238.46	-367.47	242.79	265.47	135.59	37.143	261.8	131.75	68.259	230.56	148.21	45.446	195.87	-261.66	94.452	171.84	-323.58	146.09	99.226	-239.75	68.243	112.86	353.57	63.645	205.49	322.36	46.28	309.94	405.59	66.436	257.26	73.007	1539.3	232.27
